<svg width="40" height="40" viewBox="0 0 40 40" fill="none" xmlns="http://www.w3.org/2000/svg">
<rect width="40" height="40" rx="10" fill="#414751"/>
<path fill-rule="evenodd" clip-rule="evenodd" d="M28.966 18.7994H14.93L20.381 13.3484C20.4939 13.2373 20.5837 13.1049 20.6452 12.959C20.7068 12.813 20.7388 12.6563 20.7394 12.4979C20.74 12.3394 20.7093 12.1825 20.649 12.036C20.5887 11.8895 20.5 11.7565 20.3879 11.6444C20.2759 11.5324 20.1428 11.4437 19.9964 11.3834C19.8499 11.3231 19.6929 11.2923 19.5345 11.293C19.3761 11.2936 19.2194 11.3256 19.0734 11.3871C18.9275 11.4487 18.7951 11.5385 18.684 11.6514L11.184 19.1514C11.181 19.1534 11.18 19.1574 11.177 19.1604C11.0125 19.3283 10.9009 19.5408 10.8561 19.7715C10.8113 20.0023 10.8353 20.2411 10.925 20.4584C10.985 20.6014 11.07 20.7284 11.177 20.8384L11.184 20.8484L18.684 28.3484C18.919 28.5824 19.226 28.6984 19.532 28.6984C19.7693 28.6984 20.0012 28.628 20.1985 28.4962C20.3958 28.3644 20.5496 28.1771 20.6405 27.9579C20.7313 27.7387 20.7552 27.4975 20.709 27.2648C20.6628 27.0321 20.5487 26.8183 20.381 26.6504L14.931 21.1994H28.967C29.2853 21.1994 29.5905 21.073 29.8155 20.8479C30.0406 20.6229 30.167 20.3176 30.167 19.9994C30.167 19.6811 30.0406 19.3759 29.8155 19.1509C29.5905 18.9258 29.2853 18.7994 28.967 18.7994" fill="#181C22"/>
</svg>
