<svg width="24" height="25" viewBox="0 0 24 25" fill="none" xmlns="http://www.w3.org/2000/svg">
<path fill-rule="evenodd" clip-rule="evenodd" d="M12.335 5.95426L3.27301 15.0163L2.03701 19.6263L1.22401 22.6633C1.20143 22.7481 1.20154 22.8374 1.22433 22.9222C1.24713 23.007 1.29181 23.0843 1.35389 23.1464C1.41598 23.2085 1.49329 23.2531 1.57808 23.2759C1.66287 23.2987 1.75216 23.2988 1.83701 23.2763L4.87201 22.4623L9.48301 21.2263H9.48401L18.546 12.1643L12.336 5.95426H12.335ZM22.293 7.00426L17.497 2.20726C17.4042 2.11432 17.294 2.04058 17.1727 1.99027C17.0514 1.93996 16.9213 1.91406 16.79 1.91406C16.6587 1.91406 16.5286 1.93996 16.4073 1.99027C16.286 2.04058 16.1758 2.11432 16.083 2.20726L13.608 4.68126L19.819 10.8923L22.293 8.41726C22.386 8.32448 22.4597 8.21427 22.51 8.09296C22.5603 7.97164 22.5862 7.8416 22.5862 7.71026C22.5862 7.57893 22.5603 7.44889 22.51 7.32757C22.4597 7.20626 22.386 7.09605 22.293 7.00326" fill="#656D77"/>
</svg>
