<svg width="15" height="15" viewBox="0 0 15 15" fill="none" xmlns="http://www.w3.org/2000/svg">
<path fill-rule="evenodd" clip-rule="evenodd" d="M1.45508 0.5C0.902793 0.5 0.455078 0.947716 0.455078 1.5V13.5C0.455078 14.0523 0.902794 14.5 1.45508 14.5H13.4551C14.0074 14.5 14.4551 14.0523 14.4551 13.5V1.5C14.4551 0.947715 14.0074 0.5 13.4551 0.5H1.45508ZM11.5262 5.27678C11.7697 4.94168 11.6954 4.47265 11.3603 4.22918C11.0252 3.98571 10.5562 4.05999 10.3127 4.3951L6.7301 9.32606L4.55999 6.7948C4.29039 6.48033 3.81691 6.44396 3.50245 6.71356C3.18798 6.98316 3.15161 7.45664 3.42121 7.7711L5.87973 10.6388C6.36322 11.2027 7.24654 11.1672 7.68316 10.5662L11.5262 5.27678Z" fill="#8BFFEA"/>
</svg>
