<svg width="54" height="54" viewBox="0 0 54 54" fill="none" xmlns="http://www.w3.org/2000/svg">
<rect width="54" height="54" rx="16" fill="#4C535D"/>
<path fill-rule="evenodd" clip-rule="evenodd" d="M18.7616 18.7616C15.0795 22.4437 15.0795 28.4132 18.7616 32.0953L20.9839 29.873C18.53 27.4191 18.53 23.4378 20.9839 20.9839C23.4378 18.53 27.4191 18.53 29.873 20.9839L27.6512 23.2057C28.8795 24.4339 28.8795 26.422 27.6512 27.6503C26.423 28.8785 24.4349 28.8785 23.2067 27.6503L25.4285 25.4285L27.6508 23.2062C26.4226 21.9779 24.4345 21.9779 23.2062 23.2062C21.978 24.4344 21.978 26.4225 23.2062 27.6507L20.9844 29.8725C23.4383 32.3264 27.4196 32.3264 29.8735 29.8725C32.3274 27.4187 32.3274 23.4373 29.8735 20.9834L32.0953 18.7616C28.4132 15.0795 22.4437 15.0795 18.7616 18.7616ZM18.7612 32.0961L16.539 34.3183C21.4467 39.2287 29.4069 39.2287 34.3172 34.3183C39.2276 29.4106 39.2276 21.4504 34.3172 16.5401L32.095 18.7623C35.7771 22.4445 35.7771 28.4139 32.095 32.0961C28.4128 35.7782 22.4434 35.7782 18.7612 32.0961Z" fill="url(#paint0_linear_5927_1249)"/>
<defs>
<linearGradient id="paint0_linear_5927_1249" x1="16.5388" y1="17.9596" x2="41.1936" y2="14.5879" gradientUnits="userSpaceOnUse">
<stop stop-color="#00F2C6"/>
<stop offset="1" stop-color="#A5FFFD"/>
</linearGradient>
</defs>
</svg>
