<svg width="54" height="54" viewBox="0 0 54 54" fill="none" xmlns="http://www.w3.org/2000/svg">
<path d="M27.9823 18.1306C27.631 17.8573 27.4553 17.7207 27.2613 17.6682C27.0902 17.6218 26.9098 17.6218 26.7387 17.6682C26.5447 17.7207 26.369 17.8573 26.0177 18.1306L19.2354 23.4057C18.782 23.7583 18.5553 23.9346 18.392 24.1554C18.2474 24.351 18.1396 24.5714 18.074 24.8056C18 25.0701 18 25.3573 18 25.9316V33.1666C18 34.2867 18 34.8467 18.218 35.2745C18.4097 35.6509 18.7157 35.9568 19.092 36.1486C19.5198 36.3666 20.0799 36.3666 21.2 36.3666H23.2C23.48 36.3666 23.62 36.3666 23.727 36.3121C23.8211 36.2641 23.8976 36.1876 23.9455 36.0936C24 35.9866 24 35.8466 24 35.5666V28.9666C24 28.4065 24 28.1265 24.109 27.9126C24.2049 27.7244 24.3578 27.5714 24.546 27.4756C24.7599 27.3666 25.0399 27.3666 25.6 27.3666H28.4C28.9601 27.3666 29.2401 27.3666 29.454 27.4756C29.6422 27.5714 29.7951 27.7244 29.891 27.9126C30 28.1265 30 28.4065 30 28.9666V35.5666C30 35.8466 30 35.9866 30.0545 36.0936C30.1024 36.1876 30.1789 36.2641 30.273 36.3121C30.38 36.3666 30.52 36.3666 30.8 36.3666H32.8C33.9201 36.3666 34.4802 36.3666 34.908 36.1486C35.2843 35.9568 35.5903 35.6509 35.782 35.2745C36 34.8467 36 34.2867 36 33.1666V25.9316C36 25.3573 36 25.0701 35.926 24.8056C35.8604 24.5714 35.7526 24.351 35.608 24.1554C35.4447 23.9346 35.218 23.7583 34.7646 23.4057L27.9823 18.1306Z" fill="white" stroke="white" stroke-width="2" stroke-linecap="round" stroke-linejoin="round"/>
</svg>
