<svg width="20" height="20" viewBox="0 0 20 20" fill="none" xmlns="http://www.w3.org/2000/svg">
<g id="ic_description" clip-path="url(#clip0_5555_25306)">
<path id="Vector" fill-rule="evenodd" clip-rule="evenodd" d="M14.3398 8.51315L9.68732 13.1665C9.53058 13.3222 9.31864 13.4095 9.09773 13.4095C8.87683 13.4095 8.66489 13.3222 8.50815 13.1665L5.66148 10.3198C5.58411 10.2424 5.52274 10.1506 5.48087 10.0495C5.43899 9.94841 5.41744 9.84007 5.41744 9.73065C5.41744 9.50967 5.50523 9.29774 5.66148 9.14148C5.81774 8.98523 6.02967 8.89744 6.25065 8.89744C6.47163 8.89744 6.68356 8.98523 6.83982 9.14148L9.09732 11.399L13.1615 7.33482C13.2389 7.25745 13.3307 7.19607 13.4318 7.1542C13.5329 7.11233 13.6412 7.09078 13.7506 7.09078C13.8601 7.09078 13.9684 7.11233 14.0695 7.1542C14.1706 7.19607 14.2624 7.25745 14.3398 7.33482C14.4172 7.41219 14.4786 7.50404 14.5204 7.60513C14.5623 7.70622 14.5839 7.81457 14.5839 7.92398C14.5839 8.0334 14.5623 8.14175 14.5204 8.24284C14.4786 8.34393 14.4172 8.43578 14.3398 8.51315ZM10.0007 0.833984C4.93815 0.833984 0.833984 4.93815 0.833984 10.0007C0.833984 15.0631 4.93815 19.1673 10.0007 19.1673C15.0631 19.1673 19.1673 15.0631 19.1673 10.0007C19.1673 4.93815 15.0631 0.833984 10.0007 0.833984Z" fill="#06FFD2"/>
</g>
<defs>
<clipPath id="clip0_5555_25306">
<rect width="20" height="20" fill="white"/>
</clipPath>
</defs>
</svg>
