<svg width="20" height="20" viewBox="0 0 20 20" fill="none" xmlns="http://www.w3.org/2000/svg">
<g id="ic_description" clip-path="url(#clip0_5555_21478)">
<path id="Vector" fill-rule="evenodd" clip-rule="evenodd" d="M10.0007 14.2656C9.73543 14.2656 9.48108 14.1603 9.29354 13.9728C9.10601 13.7852 9.00065 13.5309 9.00065 13.2656C9.00065 13.0004 9.10601 12.7461 9.29354 12.5585C9.48108 12.371 9.73543 12.2657 10.0007 12.2657C10.2659 12.2657 10.5202 12.371 10.7078 12.5585C10.8953 12.7461 11.0006 13.0004 11.0006 13.2656C11.0006 13.5309 10.8953 13.7852 10.7078 13.9728C10.5202 14.1603 10.2659 14.2656 10.0007 14.2656ZM9.16732 6.06982C9.16732 5.8488 9.25511 5.63684 9.4114 5.48056C9.56767 5.32428 9.77964 5.23648 10.0007 5.23648C10.2217 5.23648 10.4336 5.32428 10.5899 5.48056C10.7462 5.63684 10.834 5.8488 10.834 6.06982V10.2365C10.834 10.4575 10.7462 10.6695 10.5899 10.8257C10.4336 10.982 10.2217 11.0698 10.0007 11.0698C9.77964 11.0698 9.56767 10.982 9.4114 10.8257C9.25511 10.6695 9.16732 10.4575 9.16732 10.2365V6.06982ZM10.0007 0.833984C4.93815 0.833984 0.833984 4.93815 0.833984 10.0007C0.833984 15.064 4.93815 19.1673 10.0007 19.1673C15.0631 19.1673 19.1673 15.064 19.1673 10.0007C19.1673 4.93815 15.0631 0.833984 10.0007 0.833984Z" fill="#F84949"/>
</g>
<defs>
<clipPath id="clip0_5555_21478">
<rect width="20" height="20" fill="white"/>
</clipPath>
</defs>
</svg>
