<svg width="15" height="4" viewBox="0 0 15 4" fill="none" xmlns="http://www.w3.org/2000/svg">
<g id="Group">
<path id="Vector" d="M7.14202 2.42857C7.53651 2.42857 7.85631 2.10877 7.85631 1.71429C7.85631 1.3198 7.53651 1 7.14202 1C6.74753 1 6.42773 1.3198 6.42773 1.71429C6.42773 2.10877 6.74753 2.42857 7.14202 2.42857Z" stroke="white" stroke-width="1.5" stroke-linecap="round"/>
<path id="Vector_2" d="M1.71429 2.42857C2.10877 2.42857 2.42857 2.10877 2.42857 1.71429C2.42857 1.3198 2.10877 1 1.71429 1C1.3198 1 1 1.3198 1 1.71429C1 2.10877 1.3198 2.42857 1.71429 2.42857Z" stroke="white" stroke-width="1.5" stroke-linecap="round"/>
<path id="Vector_3" d="M12.5717 2.42857C12.9662 2.42857 13.286 2.10877 13.286 1.71429C13.286 1.3198 12.9662 1 12.5717 1C12.1772 1 11.8574 1.3198 11.8574 1.71429C11.8574 2.10877 12.1772 2.42857 12.5717 2.42857Z" stroke="white" stroke-width="1.5" stroke-linecap="round"/>
</g>
</svg>
