<svg width="54" height="42" viewBox="0 0 54 42" fill="none" xmlns="http://www.w3.org/2000/svg">
<path fill-rule="evenodd" clip-rule="evenodd" d="M24.0832 3.07326C26.0281 -0.357755 30.9715 -0.357752 32.9164 3.07326L50.16 33.4932C52.0785 36.8776 49.6337 41.0736 45.7434 41.0736H11.2561C7.36582 41.0736 4.9211 36.8776 6.83955 33.4932L24.0832 3.07326ZM30.3065 4.55267C29.5109 3.14911 27.4887 3.14911 26.693 4.55267L9.44941 34.9726C8.66461 36.3571 9.6647 38.0736 11.2561 38.0736H45.7434C47.3349 38.0736 48.335 36.3571 47.5502 34.9726L30.3065 4.55267Z" fill="#F84949"/>
<path d="M29.6973 14.8711L29.5059 29.0898H27.209L27.0176 14.8711H29.6973ZM28.3574 34.832C27.4004 34.832 26.5801 34.0391 26.6074 33.0547C26.5801 32.0977 27.4004 31.3047 28.3574 31.3047C29.3145 31.3047 30.1074 32.0977 30.1074 33.0547C30.1074 34.0391 29.3145 34.832 28.3574 34.832Z" fill="#F84949"/>
</svg>
