<svg width="12" height="13" viewBox="0 0 12 13" fill="none" xmlns="http://www.w3.org/2000/svg">
<path d="M1 3.3663C1 3.13654 1.10536 2.9162 1.29289 2.75373C1.48043 2.59127 1.73478 2.5 2 2.5H10C10.2652 2.5 10.5196 2.59127 10.7071 2.75373C10.8946 2.9162 11 3.13654 11 3.3663V4.06396L6 6.5L1 4.06396V3.3663Z" fill="#DFDFDF"/>
<path d="M1 5V9.59787C1 9.83713 1.10536 10.0666 1.29289 10.2358C1.48043 10.405 1.73478 10.5 2 10.5H10C10.2652 10.5 10.5196 10.405 10.7071 10.2358C10.8946 10.0666 11 9.83713 11 9.59787V5L6 7.5374L1 5Z" fill="#DFDFDF"/>
</svg>
