<svg width="222" height="222" viewBox="0 0 222 222" fill="none" xmlns="http://www.w3.org/2000/svg">
<path fill-rule="evenodd" clip-rule="evenodd" d="M168.629 105.976L111.483 139.133L111.48 139.131L111.48 205.446L168.626 172.289L168.629 172.29L168.629 105.976Z" fill="#33373F"/>
<path fill-rule="evenodd" clip-rule="evenodd" d="M54.3438 172.288L111.49 139.131L54.3438 105.974L54.3438 172.288ZM54.3493 172.289L111.495 205.447L111.495 139.132L54.3493 172.289Z" fill="#4C535D"/>
<path d="M111.486 139.133L54.3403 105.975L111.486 72.8182L111.486 139.133Z" fill="#33373F"/>
<path d="M111.486 139.131L111.486 72.8167L168.632 105.974L111.486 139.131Z" fill="#4C535D"/>
<path d="M136.754 153.815L193.756 120.742L168.485 106.082L111.483 139.155L136.754 153.815Z" fill="#656D77"/>
<path d="M54.4818 105.808L111.483 72.7349L86.2124 58.0751L29.2109 91.1484L54.4818 105.808Z" fill="#656D77"/>
<path d="M86.2126 153.815L29.2111 120.742L54.482 106.082L111.483 139.155L86.2126 153.815Z" fill="#656D77"/>
<path d="M168.493 105.808L111.491 72.7349L136.762 58.0751L193.764 91.1484L168.493 105.808Z" fill="#656D77"/>
<path d="M102.481 40.2641C103.883 34.2424 101.324 27.4707 99.8696 24.8376L113.785 20.6224L127.44 24.6149C130.431 32.3585 126.652 49.0735 126.652 49.0735C126.652 49.0735 118.784 52.0209 109.787 52.8267C102.02 53.5223 99.3983 53.4938 96.456 53.0515C97.8797 51.2981 101.078 46.2858 102.481 40.2641Z" fill="#4C535D"/>
<mask id="mask0_8041_21727" style="mask-type:alpha" maskUnits="userSpaceOnUse" x="96" y="20" width="34" height="34">
<path d="M102.479 40.2651C103.881 34.2434 101.322 27.4717 99.8676 24.8385L113.789 20.6191L127.449 24.6181C130.8 32.9304 128.098 46.4675 126.242 48.5138C124.386 50.5601 118.867 52.1632 109.701 53.6583C106.165 54.2351 99.3964 53.4947 96.454 53.0525C97.8778 51.299 101.076 46.2868 102.479 40.2651Z" fill="#D9D9D9"/>
</mask>
<g mask="url(#mask0_8041_21727)">
<path d="M115.346 28.6389L113.102 17.1758L116.423 15.7113L135.262 22.0224L115.346 28.6389Z" fill="#656D77"/>
</g>
<path d="M115.961 127.459C105.553 127.458 89.8589 116.514 95.741 102.655C103.094 85.3298 125.824 96.0717 134.512 77.4469C138.267 69.3947 131.139 59.2615 125.056 54.5154" stroke="#868C93" stroke-width="1.53641" stroke-linecap="square" stroke-linejoin="round" stroke-dasharray="3.48 2.61"/>
</svg>
